<svg width="22" height="24" viewBox="0 0 22 24" fill="none" xmlns="http://www.w3.org/2000/svg">
<path d="M10.1142 0.112664C9.17808 0.532282 8.66164 1.29083 8.66164 2.24304C8.66164 3.19525 9.11351 3.90537 9.93663 4.27659L10.5983 4.56708V5.58384V6.60061H10.1142C9.2265 6.60061 7.85467 7.2462 6.98316 8.08544L6.16004 8.89241L5.27238 8.40824C4.40088 7.92406 4.40088 7.92406 4.4493 7.19778C4.56226 5.3902 2.94836 4.24432 1.31827 4.97056C0.721133 5.22878 0.511332 5.43862 0.253075 6.0519C-0.198795 7.05252 -0.0535676 7.76265 0.753401 8.56962C1.286 9.11836 1.44741 9.1829 2.1575 9.1829C2.75467 9.1829 3.12589 9.06994 3.54549 8.77942L4.14266 8.39208L5.03031 8.90853C5.67587 9.27974 5.90182 9.48954 5.82113 9.66707C5.24012 11.0066 5.19169 12.4753 5.65972 13.8471L5.90182 14.5089L5.06258 14.993C4.59453 15.2512 4.17492 15.4772 4.11035 15.4772C4.04581 15.4772 3.72302 15.2997 3.40022 15.0737C1.9477 14.0892 0.0432741 15.1383 0.0432741 16.9459C0.0432741 18.6728 1.70563 19.6734 3.28727 18.9148C4.09424 18.5437 4.48157 17.8335 4.43315 16.849L4.40088 16.0582L5.27238 15.5256L6.14389 15.0092L6.99928 15.8161C7.91921 16.6877 8.82302 17.1557 9.92048 17.3332L10.5983 17.4462V18.4307V19.4313L9.95275 19.7057C8.67776 20.2382 8.20973 22.0297 9.08124 23.0626C9.67841 23.7728 10.3724 24.0794 11.0987 23.9826C12.4705 23.805 13.3743 22.4655 13.0354 21.1582C12.8417 20.4642 12.1315 19.738 11.4698 19.5765C11.1148 19.4797 11.0825 19.399 11.0825 18.4791V17.4623L12.0509 17.1879C13.2452 16.8652 14.0844 16.3487 14.8107 15.5095L15.3594 14.88L16.0857 15.3158C16.7151 15.687 16.8119 15.8161 16.8281 16.3003C16.8604 17.4139 16.9088 17.5753 17.3929 18.1402C18.3452 19.2054 19.8138 19.2054 20.7499 18.124C21.1534 17.6721 21.2502 17.43 21.2502 16.8006C21.2502 15.3965 20.3464 14.5089 18.9262 14.5089C18.3936 14.5089 18.0869 14.6057 17.7157 14.9285C17.4252 15.1706 17.1347 15.2835 17.0217 15.219C16.9088 15.1544 16.5376 14.9285 16.2148 14.7187L15.6176 14.3474L15.8436 13.6857C16.1664 12.8142 16.1502 10.9421 15.8436 10.1997C15.5692 9.53796 15.5692 9.53796 16.5214 9.02152L17.1831 8.6503L17.6996 9.02152C19.2328 10.1028 21.2502 9.10221 21.2502 7.26236C21.2502 5.93891 20.3464 4.98671 19.0714 4.98671C17.7641 4.98671 16.8281 6.01963 16.8604 7.43985C16.8765 8.18228 16.8603 8.21455 16.1341 8.60188L15.3917 9.02152L14.6331 8.24682C13.81 7.40758 13.0515 6.97183 11.8895 6.66519L11.1632 6.48766L11.1309 5.53542L11.0825 4.58323L11.7604 4.26043C12.6964 3.80853 13.0838 3.22753 13.0838 2.27532C13.0838 1.32311 12.5835 0.532286 11.7926 0.2095C11.2278 -0.0325886 10.5176 -0.0648673 10.1142 0.112664ZM11.8733 1.37152C12.9708 2.77564 10.9857 4.47027 9.83979 3.1307C9.04897 2.2269 9.67841 0.951904 10.9211 0.951904C11.4053 0.951904 11.6151 1.04874 11.8733 1.37152ZM3.23885 6.13259C3.78759 6.77815 3.77144 7.32689 3.19042 7.90791C2.65783 8.42435 2.25434 8.48893 1.57652 8.13386C0.366069 7.52058 0.882512 5.63227 2.2705 5.63227C2.6901 5.63227 2.91605 5.74526 3.23885 6.13259ZM20.0882 6.3747C20.8629 7.2462 20.2496 8.53735 19.0714 8.53735C17.9578 8.53735 17.3284 7.35916 17.9578 6.4715C18.4904 5.69684 19.4426 5.66457 20.0882 6.3747ZM12.3737 8.06929C14.4556 9.00537 15.4401 11.2649 14.7138 13.3952C14.149 15.0576 12.5189 16.1873 10.6952 16.1712C9.5493 16.1712 8.79075 15.8968 7.93536 15.1383C7.06385 14.3636 6.56353 13.2177 6.56353 11.975C6.56353 10.8614 6.72491 10.3449 7.32207 9.45727C8.37111 7.94018 10.679 7.29463 12.3737 8.06929ZM19.9752 15.7838C20.4755 16.2842 20.5562 16.7361 20.2496 17.3009C19.9752 17.8335 19.6201 18.0433 19.023 18.0595C17.635 18.0756 17.1993 16.2196 18.4258 15.5095C18.9584 15.2028 19.4749 15.2997 19.9752 15.7838ZM2.9322 15.7354C3.23884 15.8645 3.65848 16.6231 3.65848 17.075C3.65848 17.656 2.96447 18.2854 2.31892 18.2854C1.10846 18.2854 0.49518 17.0104 1.25373 16.0582C1.59264 15.6386 2.30277 15.4934 2.9322 15.7354ZM11.8572 20.8354C12.6803 21.6262 12.0347 23.0626 10.8404 23.0626C9.42015 23.0626 9.00055 21.1743 10.2755 20.5288C10.7759 20.2706 11.373 20.3997 11.8572 20.8354Z" fill="white"/>
</svg>
