<svg width="22" height="22" viewBox="0 0 22 22" fill="none" xmlns="http://www.w3.org/2000/svg">
<path d="M1.87604 17.6157C1.92198 17.2022 1.94496 16.9955 2.00751 16.8022C2.06301 16.6308 2.14143 16.4676 2.24064 16.3172C2.35246 16.1476 2.49955 16.0005 2.79373 15.7063L16 2.50006C17.1046 1.39549 18.8955 1.39549 20 2.50006C21.1046 3.60463 21.1046 5.39549 20 6.50006L6.79373 19.7063C6.49955 20.0005 6.35245 20.1476 6.18289 20.2594C6.03245 20.3586 5.86929 20.437 5.69785 20.4925C5.5046 20.5551 5.29786 20.5781 4.88437 20.624L1.5 21.0001L1.87604 17.6157Z" stroke="white" stroke-width="2" stroke-linecap="round" stroke-linejoin="round"/>
</svg>
