<svg width="336" height="100" viewBox="0 0 336 100" fill="none" xmlns="http://www.w3.org/2000/svg">
<path d="M67.6856 0.467436C63.8019 2.2084 61.6592 5.35555 61.6592 9.30622C61.6592 13.2569 63.534 16.2031 66.9491 17.7433L69.6944 18.9485V23.167V27.3855H67.6856C64.0028 27.3855 58.3111 30.064 54.6953 33.546L51.2803 36.894L47.5974 34.8852C43.9816 32.8764 43.9816 32.8764 44.1825 29.8631C44.6512 22.3636 37.9552 17.6094 31.192 20.6225C28.7146 21.6939 27.8441 22.5645 26.7726 25.1089C24.8979 29.2604 25.5004 32.2067 28.8485 35.5548C31.0582 37.8315 31.7279 38.0992 34.674 38.0992C37.1516 38.0992 38.6918 37.6306 40.4326 36.4252L42.9103 34.8182L46.5931 36.9609C49.2715 38.501 50.2089 39.3715 49.8741 40.108C47.4635 45.6658 47.2626 51.7592 49.2044 57.4509L50.2089 60.1963L46.727 62.2051C44.785 63.2764 43.0441 64.2139 42.7762 64.2139C42.5085 64.2139 41.1692 63.4773 39.83 62.5398C33.8035 58.4552 25.9022 62.8077 25.9022 70.3073C25.9022 77.4721 32.7992 81.6236 39.3613 78.4764C42.7094 76.9364 44.3164 73.9901 44.1155 69.9055L43.9816 66.6245L47.5974 64.4148L51.2132 62.2721L54.7622 65.62C58.5789 69.236 62.3288 71.1777 66.882 71.9143L69.6944 72.3831V76.4676V80.6192L67.0159 81.7574C61.7261 83.9671 59.7843 91.3998 63.4001 95.6854C65.8777 98.6316 68.757 99.9039 71.7703 99.5021C77.4619 98.7655 81.2116 93.2077 79.8055 87.784C79.0019 84.9046 76.0556 81.8915 73.3103 81.2218C71.8371 80.8201 71.7032 80.4852 71.7032 76.6685V72.45L75.7209 71.3116C80.6759 69.9725 84.1579 67.8297 87.1712 64.3477L89.4477 61.7363L92.461 63.5443C95.0725 65.0843 95.4743 65.62 95.5412 67.6288C95.6752 72.2491 95.8759 72.9188 97.8847 75.2624C101.835 79.6818 107.929 79.6818 111.813 75.1954C113.487 73.3204 113.888 72.3161 113.888 69.7046C113.888 63.8791 110.139 60.1963 104.246 60.1963C102.036 60.1963 100.764 60.598 99.224 61.9371C98.0188 62.9416 96.8134 63.4103 96.3447 63.1425C95.8759 62.8746 94.3359 61.9371 92.9967 61.0667L90.5192 59.5266L91.4565 56.7812C92.7958 53.1654 92.7289 45.3979 91.4565 42.3177C90.3183 39.5724 90.3183 39.5724 94.2689 37.4297L97.0143 35.8895L99.1571 37.4297C105.518 41.916 113.888 37.7645 113.888 30.131C113.888 24.6401 110.139 20.6895 104.849 20.6895C99.4249 20.6895 95.5412 24.9751 95.6752 30.8675C95.7421 33.9478 95.675 34.0816 92.6619 35.6886L89.5818 37.4297L86.4346 34.2155C83.0195 30.7336 79.8723 28.9257 75.0513 27.6534L72.038 26.9169L71.9041 22.9661L71.7032 19.0155L74.5156 17.6763C78.3992 15.8013 80.0064 13.3908 80.0064 9.44015C80.0064 5.48948 77.9306 2.20842 74.6495 0.8692C72.3059 -0.135208 69.3597 -0.26913 67.6856 0.467436ZM74.9843 5.69036C79.5376 11.5159 71.3014 18.5469 66.5473 12.9891C63.2662 9.23927 65.8777 3.94939 71.0337 3.94939C73.0425 3.94939 73.9129 4.35115 74.9843 5.69036ZM39.1604 25.4437C41.4371 28.1221 41.3701 30.3988 38.9595 32.8094C36.7498 34.9521 35.0758 35.22 32.2635 33.7469C27.2415 31.2024 29.3841 23.3679 35.1428 23.3679C36.8837 23.3679 37.8212 23.8367 39.1604 25.4437ZM109.067 26.4482C112.281 30.064 109.737 35.4209 104.849 35.4209C100.228 35.4209 97.617 30.5327 100.228 26.8498C102.438 23.6358 106.389 23.5019 109.067 26.4482ZM77.0601 33.4789C85.698 37.3627 89.7826 46.7372 86.7694 55.576C84.4258 62.4728 77.6628 67.1601 70.0962 67.0931C65.342 67.0931 62.1949 65.9548 58.6459 62.8077C55.0301 59.5936 52.9543 54.8394 52.9543 49.6834C52.9543 45.0631 53.6238 42.9204 56.1014 39.2376C60.4538 32.9433 70.0292 30.2649 77.0601 33.4789ZM108.598 65.4861C110.674 67.5619 111.009 69.4369 109.737 71.7804C108.598 73.9901 107.125 74.8606 104.648 74.9276C98.8892 74.9945 97.0813 67.294 102.17 64.3477C104.38 63.0755 106.523 63.4773 108.598 65.4861ZM37.8882 65.2852C39.1604 65.8209 40.9015 68.968 40.9015 70.843C40.9015 73.2536 38.022 75.8651 35.3437 75.8651C30.3216 75.8651 27.7771 70.5751 30.9243 66.6245C32.3304 64.8834 35.2767 64.2809 37.8882 65.2852ZM74.9173 86.4448C78.3323 89.7258 75.6538 95.6854 70.6988 95.6854C64.8062 95.6854 63.0653 87.8509 68.3552 85.1725C70.431 84.1012 72.9085 84.6368 74.9173 86.4448Z" fill="white"/>
<path d="M277.468 34.8562C272.78 35.5258 271.775 35.9275 270.302 38.1372C269.298 39.6772 269.098 41.3513 269.098 49.1187C269.098 59.4307 269.766 61.3056 274.186 62.8456C277.266 63.9169 296.484 63.9169 299.565 62.7787C301.641 62.0422 302.175 62.109 304.386 63.5153L306.863 65.0553L308.604 62.5778L310.278 60.0332L307.733 58.5601L305.256 57.0201L305.189 48.7169C305.189 39.8781 304.653 38.0702 301.372 35.9944C299.632 34.7892 283.36 34.0526 277.468 34.8562ZM297.087 40.8826C298.025 41.2844 299.029 42.4226 299.498 43.6949C300.301 45.9716 300.502 52.4668 299.832 53.2034C299.632 53.4043 297.823 52.5337 295.881 51.2614C293.872 49.9892 291.998 48.9849 291.596 48.9849C291.262 48.9849 290.39 50.0562 289.587 51.3284L288.248 53.672L291.262 55.4131C293.471 56.7522 294.074 57.3549 293.404 57.7566C292.266 58.4932 282.49 58.4932 279.208 57.6896C275.392 56.8192 274.589 55.6808 274.253 50.7258C273.919 45.235 274.923 41.8869 277.333 41.0165C279.677 40.2129 294.944 40.079 297.087 40.8826Z" fill="white"/>
<path d="M128.814 49.3193V63.0462H131.828H134.841V57.6893V52.3324H142.876H150.912V57.6893V63.0462H153.924H156.937V49.3193V35.5923H153.924H150.912V40.9492V46.306H142.876H134.841V40.9492V35.5923H131.828H128.814V49.3193Z" fill="white"/>
<path d="M160.287 49.3193V63.0462H173.01H185.732V60.0329V57.0197H176.021H166.312V54.6762V52.3324H174.014H181.714V49.3193V46.306H174.014H166.312V43.9624V41.6857L175.889 41.4848L185.396 41.2839L185.598 38.4047L185.799 35.5923H173.075H160.287V49.3193Z" fill="white"/>
<path d="M188.408 49.3193V63.0462H191.422H194.435V57.6893V52.3324H202.135H209.837V49.3193V46.306H202.135H194.435V43.9624V41.6857L204.011 41.4848L213.519 41.2839L213.72 38.4047L213.92 35.5923H201.198H188.408V49.3193Z" fill="white"/>
<path d="M215.996 38.405L216.198 41.2844L221.555 41.6192L226.911 41.954V52.3329V62.7117L229.79 62.9126L232.602 63.1135V52.3998V41.6192H237.959H243.316V38.6059V35.5928H229.522H215.795L215.996 38.405Z" fill="white"/>
<path d="M259.387 49.3193V63.0462H262.4H265.414V49.3193V35.5923H262.4H259.387V49.3193Z" fill="white"/>
</svg>
