<svg width="16" height="16" viewBox="0 0 16 16" fill="none" xmlns="http://www.w3.org/2000/svg">
<g id="icon / tabler-icons / pencil-minus" clip-path="url(#clip0_357_522)">
<path id="Vector" d="M5.33335 13.3333L12.3334 6.33333C12.5084 6.15824 12.6473 5.95037 12.7421 5.72159C12.8369 5.49282 12.8856 5.24762 12.8856 5C12.8856 4.75238 12.8369 4.50718 12.7421 4.2784C12.6473 4.04963 12.5084 3.84176 12.3334 3.66666C12.1583 3.49157 11.9504 3.35268 11.7216 3.25791C11.4928 3.16315 11.2476 3.11438 11 3.11438C10.7524 3.11438 10.5072 3.16315 10.2784 3.25791C10.0497 3.35268 9.84178 3.49157 9.66669 3.66666L2.66669 10.6667V13.3333H5.33335Z" stroke="white" stroke-linecap="round" stroke-linejoin="round"/>
<path id="Vector_2" d="M9 4.33331L11.6667 6.99998" stroke="white" stroke-linecap="round" stroke-linejoin="round"/>
<path id="Vector_3" d="M10.6667 12H13.3334" stroke="white" stroke-linecap="round" stroke-linejoin="round"/>
</g>
<defs>
<clipPath id="clip0_357_522">
<rect width="16" height="16" fill="white"/>
</clipPath>
</defs>
</svg>
