<svg width="25" height="24" viewBox="0 0 25 24" fill="none" xmlns="http://www.w3.org/2000/svg">
<g id="humbleicons:prompt">
<path id="Vector" d="M8.25 10L10.75 12.5L8.25 15M12.75 15H16.75M6.75 5H18.75C19.2804 5 19.7891 5.21071 20.1642 5.58579C20.5393 5.96086 20.75 6.46957 20.75 7V17C20.75 17.5304 20.5393 18.0391 20.1642 18.4142C19.7891 18.7893 19.2804 19 18.75 19H6.75C6.21957 19 5.71086 18.7893 5.33579 18.4142C4.96071 18.0391 4.75 17.5304 4.75 17V7C4.75 6.46957 4.96071 5.96086 5.33579 5.58579C5.71086 5.21071 6.21957 5 6.75 5Z" stroke="black" stroke-width="1.5" stroke-linecap="round" stroke-linejoin="round"/>
</g>
</svg>
